#N struct 1248-g1 float x float y float color float x1 float y1 float x2 float y2 float x3 float y3 float x4 float y4 float x5 float y5 float x6 float y6;
#N struct 1249-g1 float x float y float color float x1 float y1 float x2 float y2 float x3 float y3 float x4 float y4 float x5 float y5 float x6 float y6;
#N struct 1250-g1 float x float y float color float x1 float y1 float x2 float y2 float x3 float y3 float x4 float y4 float x5 float y5 float x6 float y6;
#N struct 1251-g1 float x float y float color float x1 float y1 float x2 float y2 float x3 float y3 float x4 float y4 float x5 float y5 float x6 float y6;
#N struct 1252-g1 float x float y float color float x1 float y1 float x2 float y2 float x3 float y3 float x4 float y4 float x5 float y5 float x6 float y6;
#N struct 1253-g1 float x float y float color float x1 float y1 float x2 float y2 float x3 float y3 float x4 float y4 float x5 float y5 float x6 float y6;
#N struct 1254-g1 float x float y float color float x1 float y1 float x2 float y2 float x3 float y3 float x4 float y4 float x5 float y5 float x6 float y6;
#N struct 1255-g1 float x float y float color float x1 float y1 float x2 float y2 float x3 float y3 float x4 float y4 float x5 float y5 float x6 float y6;
#N struct 1256-g1 float x float y float color float x1 float y1 float x2 float y2 float x3 float y3 float x4 float y4 float x5 float y5 float x6 float y6;
#N struct 1257-g1 float x float y float color float x1 float y1 float x2 float y2 float x3 float y3 float x4 float y4 float x5 float y5 float x6 float y6;
#N struct 1258-g2 float x float y float color float x1 float y1 float x2 float y2 float x3 float y3 float x4 float y4 float x5 float y5 float x6 float y6;
#N struct 1259-g2 float x float y float color float x1 float y1 float x2 float y2 float x3 float y3 float x4 float y4 float x5 float y5 float x6 float y6;
#N struct 1260-g2 float x float y float color float x1 float y1 float x2 float y2 float x3 float y3 float x4 float y4 float x5 float y5 float x6 float y6;
#N struct 1261-g2 float x float y float color float x1 float y1 float x2 float y2 float x3 float y3 float x4 float y4 float x5 float y5 float x6 float y6;
#N struct 1262-g2 float x float y float color float x1 float y1 float x2 float y2 float x3 float y3 float x4 float y4 float x5 float y5 float x6 float y6;
#N struct 1263-g2 float x float y float color float x1 float y1 float x2 float y2 float x3 float y3 float x4 float y4 float x5 float y5 float x6 float y6;
#N struct 1264-g2 float x float y float color float x1 float y1 float x2 float y2 float x3 float y3 float x4 float y4 float x5 float y5 float x6 float y6;
#N struct 1265-g2 float x float y float color float x1 float y1 float x2 float y2 float x3 float y3 float x4 float y4 float x5 float y5 float x6 float y6;
#N struct 1266-g2 float x float y float color float x1 float y1 float x2 float y2 float x3 float y3 float x4 float y4 float x5 float y5 float x6 float y6;
#N struct 1267-g2 float x float y float color float x1 float y1 float x2 float y2 float x3 float y3 float x4 float y4 float x5 float y5 float x6 float y6;
#N struct 1268-g1 float x float y float color float x1 float y1 float x2 float y2 float x3 float y3 float x4 float y4 float x5 float y5 float x6 float y6;
#N canvas 443 123 1285 588 12;
#X obj 139 134 cnv 19 640 150 empty empty empty 20 12 0 12 #000000 #404040 0;
#X obj 159 154 lcd_7;
#X obj 219 154 lcd_7;
#X obj 279 154 lcd_7;
#X obj 339 154 lcd_7;
#X obj 399 154 lcd_7;
#X obj 459 154 lcd_7;
#X obj 519 154 lcd_7;
#X obj 579 154 lcd_7;
#X obj 639 154 lcd_7;
#X obj 699 154 lcd_7;
#X msg 159 74 0;
#X msg 219 74 1;
#X msg 279 74 2;
#X msg 339 74 3;
#X msg 399 74 4;
#X msg 459 74 5;
#X msg 519 74 6;
#X msg 579 74 7;
#X msg 639 74 8;
#X msg 699 74 9;
#X obj 139 364 cnv 19 640 150 empty empty empty 20 12 0 12 #000000 #404040 0;
#X obj 159 384 lcd_7_italic;
#X obj 219 384 lcd_7_italic;
#X obj 279 384 lcd_7_italic;
#X obj 339 384 lcd_7_italic;
#X obj 399 384 lcd_7_italic;
#X obj 459 384 lcd_7_italic;
#X obj 519 384 lcd_7_italic;
#X obj 579 384 lcd_7_italic;
#X obj 639 384 lcd_7_italic;
#X obj 699 384 lcd_7_italic;
#X msg 159 304 0;
#X msg 219 304 1;
#X msg 279 304 2;
#X msg 339 304 3;
#X msg 399 304 4;
#X msg 459 304 5;
#X msg 519 304 6;
#X msg 579 304 7;
#X msg 639 304 8;
#X msg 699 304 9;
#X obj 23 285 bng 19 250 50 0 empty empty empty 0 -10 0 12 #fcfcfc #000000 #000000;
#X obj 51 55 bng 19 250 50 0 empty empty empty 0 -10 0 12 #fcfcfc #000000 #000000;
#X obj 51 4 loadbang;
#X msg 99 365 90;
#X msg 49 365 14;
#X obj 51 228 t b b;
#X obj 22 182 loadbang;
#X obj 23 257 del 1000;
#X obj 885 151 vsl 60 110 0 9 0 0 empty empty empty 0 -9 0 12 #000000 #ff0400 #000000 0 1;
#X obj 885 154 lcd_7;
#X floatatom 967 263 5 0 0 0 - - - 0;
#X floatatom 967 112 5 0 0 0 - - - 0;
#X obj 967 135 int;
#X msg 911 92 299;
#X obj 874 22 loadbang;
#X obj 874 46 t b b b;
#X msg 861 90 3;
#X msg 938 92 233;
#X connect 11 0 1 0;
#X connect 12 0 2 0;
#X connect 13 0 3 0;
#X connect 14 0 4 0;
#X connect 15 0 5 0;
#X connect 16 0 6 0;
#X connect 17 0 7 0;
#X connect 18 0 8 0;
#X connect 19 0 9 0;
#X connect 20 0 10 0;
#X connect 32 0 22 0;
#X connect 33 0 23 0;
#X connect 34 0 24 0;
#X connect 35 0 25 0;
#X connect 36 0 26 0;
#X connect 37 0 27 0;
#X connect 38 0 28 0;
#X connect 39 0 29 0;
#X connect 40 0 30 0;
#X connect 41 0 31 0;
#X connect 42 0 32 0;
#X connect 42 0 41 0;
#X connect 42 0 40 0;
#X connect 42 0 39 0;
#X connect 42 0 38 0;
#X connect 42 0 37 0;
#X connect 42 0 36 0;
#X connect 42 0 35 0;
#X connect 42 0 34 0;
#X connect 42 0 33 0;
#X connect 43 0 11 0;
#X connect 43 0 20 0;
#X connect 43 0 19 0;
#X connect 43 0 18 0;
#X connect 43 0 17 0;
#X connect 43 0 16 0;
#X connect 43 0 15 0;
#X connect 43 0 14 0;
#X connect 43 0 13 0;
#X connect 43 0 12 0;
#X connect 44 0 43 0;
#X connect 45 0 31 1;
#X connect 45 0 30 1;
#X connect 45 0 29 1;
#X connect 45 0 28 1;
#X connect 45 0 27 1;
#X connect 45 0 26 1;
#X connect 45 0 25 1;
#X connect 45 0 24 1;
#X connect 45 0 23 1;
#X connect 45 0 22 1;
#X connect 46 0 31 2;
#X connect 46 0 30 2;
#X connect 46 0 29 2;
#X connect 46 0 28 2;
#X connect 46 0 27 2;
#X connect 46 0 26 2;
#X connect 46 0 25 2;
#X connect 46 0 24 2;
#X connect 46 0 23 2;
#X connect 46 0 22 2;
#X connect 47 0 49 0;
#X connect 47 1 46 0;
#X connect 47 1 45 0;
#X connect 48 0 47 0;
#X connect 49 0 42 0;
#X connect 50 0 52 0;
#X connect 52 0 53 0;
#X connect 53 0 54 0;
#X connect 54 0 51 0;
#X connect 55 0 51 1;
#X connect 56 0 57 0;
#X connect 57 0 58 0;
#X connect 57 1 55 0;
#X connect 57 2 59 0;
#X connect 58 0 50 0;
#X connect 59 0 51 2;
