#N struct g1 float x float y float color float x1 float y1 float x2 float y2 float x3 float y3 float x4 float y4 float x5 float y5 float x6 float y6;
#N canvas 115 354 1443 663 12;
#X obj 247 380 pointer;
#X obj 283 695 filledpolygon color 1 1 x1 y1 x2 y2 x3 y3 x4 y4 x5 y5 x6 y6;
#X text 346 409 horizontal;
#X text 346 498 vertical;
#X obj 208 303 t a b b b;
#X obj 208 407 t a a a a a a a;
#X msg 347 429 0 0 \$1 0 0 0.1 0.05 0.9 0.05 1 0 0.9 -0.05 0.1 -0.05, f 68;
#X msg 347 452 0 0.5 \$2 0 0 0.1 0.05 0.9 0.05 1 0 0.9 -0.05 0.1 -0.05, f 67;
#X msg 347 475 0 1 \$3 0 0 0.1 0.05 0.9 0.05 1 0 0.9 -0.05 0.1 -0.05, f 67;
#X msg 347 519 0 0 \$4 0 0 0.1 0.05 0.1 0.45 0 0.5 -0.1 0.45 -0.1 0.05, f 66;
#X msg 347 542 1 0 \$5 0 0 0.1 0.05 0.1 0.45 0 0.5 -0.1 0.45 -0.1 0.05, f 67;
#X msg 347 565 0 0.5 \$6 0 0 0.1 0.05 0.1 0.45 0 0.5 -0.1 0.45 -0.1 0.05, f 66;
#X msg 347 588 1 0.5 \$7 0 0 0.1 0.05 0.1 0.45 0 0.5 -0.1 0.45 -0.1 0.05, f 67;
#X obj 211 -109 inlet;
#X obj 212 2 unpack f f f f f f f;
#X obj 208 278 pack f f f f f f f;
#X obj 677 -105 inlet;
#X text 716 -104 set on color;
#X obj 846 -105 inlet;
#X text 886 -104 set off color;
#X msg 677 -81 set \$1;
#X msg 846 -81 set \$1;
#X obj 1127 103 sel 1;
#X msg 1157 127 300;
#X obj 677 -57 s \$0-oncolor;
#X obj 846 -57 s \$0-offcolor;
#X obj 1135 81 r \$0-oncolor;
#X msg 1125 128 900;
#X obj 1170 102 r \$0-offcolor;
#X obj 1125 152 * 1;
#X obj 977 103 sel 1;
#X msg 1007 127 300;
#X obj 985 81 r \$0-oncolor;
#X msg 975 128 900;
#X obj 1020 102 r \$0-offcolor;
#X obj 975 152 * 1;
#X obj 660 108 sel 1;
#X msg 690 132 300;
#X obj 668 86 r \$0-oncolor;
#X msg 658 133 900;
#X obj 703 107 r \$0-offcolor;
#X obj 658 157 * 1;
#X obj 514 109 sel 1;
#X msg 544 133 300;
#X obj 522 87 r \$0-oncolor;
#X msg 512 134 900;
#X obj 557 108 r \$0-offcolor;
#X obj 512 158 * 1;
#X obj 809 108 sel 1;
#X msg 839 132 300;
#X obj 817 86 r \$0-oncolor;
#X msg 807 133 900;
#X obj 852 107 r \$0-offcolor;
#X obj 807 157 * 1;
#X obj 216 116 sel 1;
#X msg 246 140 300;
#X obj 224 94 r \$0-oncolor;
#X msg 214 141 900;
#X obj 259 115 r \$0-offcolor;
#X obj 214 165 * 1;
#X obj 362 112 sel 1;
#X msg 392 136 300;
#X msg 360 137 900;
#X obj 405 111 r \$0-offcolor;
#X obj 360 161 * 1;
#X obj 383 88 r \$0-oncolor;
#N canvas 1319 217 535 835 key_picker 0;
#X obj 146 63 route 0 1 2 3 4 5 6 7 8 9;
#X msg 146 93 1 0 1 1 1 1 1;
#X obj 146 117 s \$0-key;
#X obj 163 175 s \$0-key;
#X obj 141 34 inlet;
#X obj 59 255 r \$0-key;
#X obj 59 279 outlet;
#X floatatom 47 176 5 0 0 0 - - - 0;
#X msg 163 151 0 0 0 0 1 0 1;
#X obj 176 227 s \$0-key;
#X obj 193 285 s \$0-key;
#X obj 206 337 s \$0-key;
#X obj 223 395 s \$0-key;
#X obj 236 447 s \$0-key;
#X obj 253 505 s \$0-key;
#X obj 266 557 s \$0-key;
#X obj 283 615 s \$0-key;
#X msg 193 261 1 1 1 0 1 0 1;
#X msg 176 203 1 1 1 0 1 1 0;
#X msg 206 313 0 1 0 1 1 0 1;
#X msg 223 371 1 1 1 1 0 0 1;
#X msg 236 423 1 1 1 1 0 1 1;
#X msg 253 481 1 0 0 0 1 0 1;
#X msg 266 533 1 1 1 1 1 1 1;
#X msg 283 591 1 1 1 1 1 0 1;
#X connect 0 0 1 0;
#X connect 0 1 8 0;
#X connect 0 2 18 0;
#X connect 0 3 17 0;
#X connect 0 4 19 0;
#X connect 0 5 20 0;
#X connect 0 6 21 0;
#X connect 0 7 22 0;
#X connect 0 8 23 0;
#X connect 0 9 24 0;
#X connect 1 0 2 0;
#X connect 4 0 0 0;
#X connect 5 0 6 0;
#X connect 8 0 3 0;
#X connect 17 0 10 0;
#X connect 18 0 9 0;
#X connect 19 0 11 0;
#X connect 20 0 12 0;
#X connect 21 0 13 0;
#X connect 22 0 14 0;
#X connect 23 0 15 0;
#X connect 24 0 16 0;
#X restore 211 -57 pd key_picker;
#X text 313 -56 translates number/letter to segment;
#X text 359 4 translate 1/0 to on color code / off color code;
#N canvas 42 606 567 389 \$0-graphic 0;
#X scalar g1 0 0 900 0 0 0.1 0.05 0.9 0.05 1 0 0.9 -0.05 0.1 -0.05 \;;
#X scalar g1 0 0.5 900 0 0 0.1 0.05 0.9 0.05 1 0 0.9 -0.05 0.1 -0.05 \;;
#X scalar g1 0 1 900 0 0 0.1 0.05 0.9 0.05 1 0 0.9 -0.05 0.1 -0.05 \;;
#X scalar g1 0 0 300 0 0 0.1 0.05 0.1 0.45 0 0.5 -0.1 0.45 -0.1 0.05 \;;
#X scalar g1 1 0 900 0 0 0.1 0.05 0.1 0.45 0 0.5 -0.1 0.45 -0.1 0.05 \;;
#X scalar g1 0 0.5 900 0 0 0.1 0.05 0.1 0.45 0 0.5 -0.1 0.45 -0.1 0.05 \;;
#X scalar g1 1 0.5 300 0 0 0.1 0.05 0.1 0.45 0 0.5 -0.1 0.45 -0.1 0.05 \;;
#X coords 0 0 1 1 50 100 2 100 100;
#X restore 105 105 pd \$0-graphic;
#X obj 248 330 f \$0;
#X msg 248 359 traverse pd-\$1-graphic \, bang;
#X obj 467 298 f \$0;
#X msg 467 322 \; pd-\$1-graphic clear;
#X floatatom 309 328 5 0 0 0 - - - 0;
#X msg 171 -80 2;
#X obj 218 639 append \$0-g1 x y color x1 y1 x2 y2 x3 y3 x4 y4 x5 y5 x6 y6;
#X obj 283 725 struct \$0-g1 float x float y float color float x1 float y1 float x2 float y2 float x3 float y3 float x4 float y4 float x5 float y5 float x6 float y6;
#X connect 0 0 76 15;
#X connect 4 0 5 0;
#X connect 4 2 70 0;
#X connect 4 3 72 0;
#X connect 5 0 12 0;
#X connect 5 1 11 0;
#X connect 5 2 10 0;
#X connect 5 3 9 0;
#X connect 5 4 8 0;
#X connect 5 5 7 0;
#X connect 5 6 6 0;
#X connect 6 0 76 0;
#X connect 7 0 76 0;
#X connect 8 0 76 0;
#X connect 9 0 76 0;
#X connect 10 0 76 0;
#X connect 11 0 76 0;
#X connect 12 0 76 0;
#X connect 13 0 66 0;
#X connect 14 0 54 0;
#X connect 14 1 60 0;
#X connect 14 2 42 0;
#X connect 14 3 36 0;
#X connect 14 4 48 0;
#X connect 14 5 30 0;
#X connect 14 6 22 0;
#X connect 15 0 4 0;
#X connect 16 0 20 0;
#X connect 18 0 21 0;
#X connect 20 0 24 0;
#X connect 21 0 25 0;
#X connect 22 0 27 0;
#X connect 22 1 23 0;
#X connect 23 0 29 0;
#X connect 26 0 27 0;
#X connect 27 0 29 0;
#X connect 28 0 23 0;
#X connect 29 0 15 6;
#X connect 30 0 33 0;
#X connect 30 1 31 0;
#X connect 31 0 35 0;
#X connect 32 0 33 0;
#X connect 33 0 35 0;
#X connect 34 0 31 0;
#X connect 35 0 15 5;
#X connect 36 0 39 0;
#X connect 36 1 37 0;
#X connect 37 0 41 0;
#X connect 38 0 39 0;
#X connect 39 0 41 0;
#X connect 40 0 37 0;
#X connect 41 0 15 3;
#X connect 42 0 45 0;
#X connect 42 1 43 0;
#X connect 43 0 47 0;
#X connect 44 0 45 0;
#X connect 45 0 47 0;
#X connect 46 0 43 0;
#X connect 47 0 15 2;
#X connect 48 0 51 0;
#X connect 48 1 49 0;
#X connect 49 0 53 0;
#X connect 50 0 51 0;
#X connect 51 0 53 0;
#X connect 52 0 49 0;
#X connect 53 0 15 4;
#X connect 54 0 57 0;
#X connect 54 1 55 0;
#X connect 55 0 59 0;
#X connect 56 0 57 0;
#X connect 57 0 59 0;
#X connect 58 0 55 0;
#X connect 59 0 15 0;
#X connect 60 0 62 0;
#X connect 60 1 61 0;
#X connect 61 0 64 0;
#X connect 62 0 64 0;
#X connect 63 0 61 0;
#X connect 64 0 15 1;
#X connect 65 0 62 0;
#X connect 66 0 14 0;
#X connect 70 0 71 0;
#X connect 70 0 74 0;
#X connect 71 0 0 0;
#X connect 72 0 73 0;
#X connect 75 0 66 0;
#X coords 0 -1 1 1 60 110 2 100 100;
