#N struct 1153-g2 float x float y float color float x1 float y1 float x2 float y2 float x3 float y3 float x4 float y4 float x5 float y5 float x6 float y6;
#N canvas 0 38 1728 1027 12;
#X obj 247 380 pointer;
#X obj 283 695 filledpolygon color 1 1 x1 y1 x2 y2 x3 y3 x4 y4 x5 y5 x6 y6;
#X text 346 409 horizontal;
#X text 346 498 vertical;
#X obj 208 303 t a b b b;
#X obj 208 407 t a a a a a a a;
#X obj 211 -109 inlet;
#X obj 212 2 unpack f f f f f f f;
#X obj 208 278 pack f f f f f f f;
#X obj 677 -105 inlet;
#X text 716 -104 set on color;
#X obj 846 -105 inlet;
#X text 886 -104 set off color;
#X msg 677 -81 set \$1;
#X msg 846 -81 set \$1;
#X obj 1127 103 sel 1;
#X msg 1157 127 14;
#X obj 677 -57 s \$0-oncolor;
#X obj 846 -57 s \$0-offcolor;
#X obj 1135 81 r \$0-oncolor;
#X msg 1125 128 90;
#X obj 1170 102 r \$0-offcolor;
#X obj 1125 152 * 1;
#X obj 977 103 sel 1;
#X msg 1007 127 14;
#X obj 985 81 r \$0-oncolor;
#X msg 975 128 90;
#X obj 1020 102 r \$0-offcolor;
#X obj 975 152 * 1;
#X obj 660 108 sel 1;
#X msg 690 132 14;
#X obj 668 86 r \$0-oncolor;
#X msg 658 133 90;
#X obj 703 107 r \$0-offcolor;
#X obj 658 157 * 1;
#X obj 514 109 sel 1;
#X msg 544 133 14;
#X obj 522 87 r \$0-oncolor;
#X msg 512 134 90;
#X obj 557 108 r \$0-offcolor;
#X obj 512 158 * 1;
#X obj 809 108 sel 1;
#X msg 839 132 14;
#X obj 817 86 r \$0-oncolor;
#X msg 807 133 90;
#X obj 852 107 r \$0-offcolor;
#X obj 807 157 * 1;
#X obj 216 116 sel 1;
#X msg 246 140 14;
#X obj 224 94 r \$0-oncolor;
#X msg 214 141 90;
#X obj 259 115 r \$0-offcolor;
#X obj 214 165 * 1;
#X obj 362 112 sel 1;
#X msg 392 136 14;
#X msg 360 137 90;
#X obj 405 111 r \$0-offcolor;
#X obj 360 161 * 1;
#X obj 383 88 r \$0-oncolor;
#N canvas 1319 217 535 835 key_picker 0;
#X obj 146 63 route 0 1 2 3 4 5 6 7 8 9;
#X msg 146 93 1 0 1 1 1 1 1;
#X obj 146 117 s \$0-key;
#X obj 163 175 s \$0-key;
#X obj 141 34 inlet;
#X obj 59 255 r \$0-key;
#X obj 59 279 outlet;
#X floatatom 47 176 5 0 0 0 - - - 0;
#X msg 163 151 0 0 0 0 1 0 1;
#X obj 176 227 s \$0-key;
#X obj 193 285 s \$0-key;
#X obj 206 337 s \$0-key;
#X obj 223 395 s \$0-key;
#X obj 236 447 s \$0-key;
#X obj 253 505 s \$0-key;
#X obj 266 557 s \$0-key;
#X obj 283 615 s \$0-key;
#X msg 193 261 1 1 1 0 1 0 1;
#X msg 176 203 1 1 1 0 1 1 0;
#X msg 206 313 0 1 0 1 1 0 1;
#X msg 223 371 1 1 1 1 0 0 1;
#X msg 236 423 1 1 1 1 0 1 1;
#X msg 253 481 1 0 0 0 1 0 1;
#X msg 266 533 1 1 1 1 1 1 1;
#X msg 283 591 1 1 1 1 1 0 1;
#X connect 0 0 1 0;
#X connect 0 1 8 0;
#X connect 0 2 18 0;
#X connect 0 3 17 0;
#X connect 0 4 19 0;
#X connect 0 5 20 0;
#X connect 0 6 21 0;
#X connect 0 7 22 0;
#X connect 0 8 23 0;
#X connect 0 9 24 0;
#X connect 1 0 2 0;
#X connect 4 0 0 0;
#X connect 5 0 6 0;
#X connect 8 0 3 0;
#X connect 17 0 10 0;
#X connect 18 0 9 0;
#X connect 19 0 11 0;
#X connect 20 0 12 0;
#X connect 21 0 13 0;
#X connect 22 0 14 0;
#X connect 23 0 15 0;
#X connect 24 0 16 0;
#X restore 211 -57 pd key_picker;
#X text 313 -56 translates number/letter to segment;
#X text 359 4 translate 1/0 to on color code / off color code;
#N canvas 42 606 567 389 \$0-graphic 0;
#X scalar 1153-g2 0.3 0 90 0 0 0.1 0.05 0.9 0.05 1 0 0.9 -0.05 0.1 -0.05 \;;
#X scalar 1153-g2 0.15 0.5 90 0 0 0.1 0.05 0.9 0.05 1 0 0.9 -0.05 0.1 -0.05 \;;
#X scalar 1153-g2 0 1 90 0 0 0.1 0.05 0.9 0.05 1 0 0.9 -0.05 0.1 -0.05 \;;
#X scalar 1153-g2 0.15 0 90 0.15 0 0.25 0.05 0.1 0.45 0 0.5 -0.1 0.45 0.05 0.05 \;;
#X scalar 1153-g2 1.15 0 90 0.15 0 0.25 0.05 0.1 0.45 0 0.5 -0.1 0.45 0.05 0.05 \;;
#X scalar 1153-g2 0 0.5 14 0.15 0 0.25 0.05 0.1 0.45 0 0.5 -0.1 0.45 0.05 0.05 \;;
#X scalar 1153-g2 1 0.5 90 0.15 0 0.25 0.05 0.1 0.45 0 0.5 -0.1 0.45 0.05 0.05 \;;
#X coords 0 0 1 1 50 100 2 100 100;
#X restore 105 105 pd \$0-graphic;
#X obj 248 330 f \$0;
#X msg 248 359 traverse pd-\$1-graphic \, bang;
#X obj 467 298 f \$0;
#X msg 467 322 \; pd-\$1-graphic clear;
#X floatatom 309 328 5 0 0 0 - - - 0;
#X msg 171 -80 2;
#X msg 347 452 0.15 0.5 \$2 0 0 0.1 0.05 0.9 0.05 1 0 0.9 -0.05 0.1 -0.05, f 67;
#X msg 347 475 0 1 \$3 0 0 0.1 0.05 0.9 0.05 1 0 0.9 -0.05 0.1 -0.05, f 67;
#X msg 347 429 0.3 0 \$1 0 0 0.1 0.05 0.9 0.05 1 0 0.9 -0.05 0.1 -0.05, f 68;
#X msg 348 519 0.15 0 \$4 0.15 0 0.25 0.05 0.1 0.45 0 0.5 -0.1 0.45 0.05 0.05, f 66;
#X msg 347 543 1.15 0 \$5 0.15 0 0.25 0.05 0.1 0.45 0 0.5 -0.1 0.45 0.05 0.05, f 67;
#X msg 347 565 0 0.5 \$6 0.15 0 0.25 0.05 0.1 0.45 0 0.5 -0.1 0.45 0.05 0.05, f 66;
#X msg 347 588 1 0.5 \$7 0.15 0 0.25 0.05 0.1 0.45 0 0.5 -0.1 0.45 0.05 0.05, f 67;
#X obj 218 639 append \$0-g2 x y color x1 y1 x2 y2 x3 y3 x4 y4 x5 y5 x6 y6;
#X obj 283 725 struct \$0-g2 float x float y float color float x1 float y1 float x2 float y2 float x3 float y3 float x4 float y4 float x5 float y5 float x6 float y6;
#X connect 0 0 76 15;
#X connect 4 0 5 0;
#X connect 4 2 63 0;
#X connect 4 3 65 0;
#X connect 5 0 75 0;
#X connect 5 1 74 0;
#X connect 5 2 73 0;
#X connect 5 3 72 0;
#X connect 5 4 70 0;
#X connect 5 5 69 0;
#X connect 5 6 71 0;
#X connect 6 0 59 0;
#X connect 7 0 47 0;
#X connect 7 1 53 0;
#X connect 7 2 35 0;
#X connect 7 3 29 0;
#X connect 7 4 41 0;
#X connect 7 5 23 0;
#X connect 7 6 15 0;
#X connect 8 0 4 0;
#X connect 9 0 13 0;
#X connect 11 0 14 0;
#X connect 13 0 17 0;
#X connect 14 0 18 0;
#X connect 15 0 20 0;
#X connect 15 1 16 0;
#X connect 16 0 22 0;
#X connect 19 0 20 0;
#X connect 20 0 22 0;
#X connect 21 0 16 0;
#X connect 22 0 8 6;
#X connect 23 0 26 0;
#X connect 23 1 24 0;
#X connect 24 0 28 0;
#X connect 25 0 26 0;
#X connect 26 0 28 0;
#X connect 27 0 24 0;
#X connect 28 0 8 5;
#X connect 29 0 32 0;
#X connect 29 1 30 0;
#X connect 30 0 34 0;
#X connect 31 0 32 0;
#X connect 32 0 34 0;
#X connect 33 0 30 0;
#X connect 34 0 8 3;
#X connect 35 0 38 0;
#X connect 35 1 36 0;
#X connect 36 0 40 0;
#X connect 37 0 38 0;
#X connect 38 0 40 0;
#X connect 39 0 36 0;
#X connect 40 0 8 2;
#X connect 41 0 44 0;
#X connect 41 1 42 0;
#X connect 42 0 46 0;
#X connect 43 0 44 0;
#X connect 44 0 46 0;
#X connect 45 0 42 0;
#X connect 46 0 8 4;
#X connect 47 0 50 0;
#X connect 47 1 48 0;
#X connect 48 0 52 0;
#X connect 49 0 50 0;
#X connect 50 0 52 0;
#X connect 51 0 48 0;
#X connect 52 0 8 0;
#X connect 53 0 55 0;
#X connect 53 1 54 0;
#X connect 54 0 57 0;
#X connect 55 0 57 0;
#X connect 56 0 54 0;
#X connect 57 0 8 1;
#X connect 58 0 55 0;
#X connect 59 0 7 0;
#X connect 63 0 64 0;
#X connect 63 0 67 0;
#X connect 64 0 0 0;
#X connect 65 0 66 0;
#X connect 68 0 59 0;
#X connect 69 0 76 0;
#X connect 70 0 76 0;
#X connect 71 0 76 0;
#X connect 72 0 76 0;
#X connect 73 0 76 0;
#X connect 74 0 76 0;
#X connect 75 0 76 0;
#X coords 0 -1 1 1 60 110 2 100 100;
